# xmcd
# 
# Track frame offsets:
#	183
#	24933
#	41140
#
# Disc length: 814 seconds
#
# Revision: 1
# Processed by: cddbd v1.4PL0 Copyright (c) Steve Scherf et al.
# Submitted via: Audio-CD-Archiv 2.10.451
#
DISCID=1b032c03
DTITLE=Father Father - What is a soul
DYEAR=1900
DGENRE=blues
TTITLE0=What is a soul (Extended version )
TTITLE1=Father Father
TTITLE2=Melody melody
EXTD=
EXTT0=
EXTT1=
EXTT2=
PLAYORDER=
